<?xml version="1.0" standalone="no"?>
<!DOCTYPE svg PUBLIC "-//W3C//DTD SVG 20010904//EN"
 "http://www.w3.org/TR/2001/REC-SVG-20010904/DTD/svg10.dtd">
<svg version="1.0" xmlns="http://www.w3.org/2000/svg"
 width="1000.000000pt" height="1000.000000pt" viewBox="0 0 1000.000000 1000.000000"
 preserveAspectRatio="xMidYMid meet">
<metadata>
Created by potrace 1.11, written by Peter Selinger 2001-2013
</metadata>
<g transform="translate(0.000000,1000.000000) scale(0.100000,-0.100000)"
fill="#000000" stroke="none">
<path d="M4870 9763 c-1070 -27 -2085 -412 -2935 -1114 -129 -107 -477 -455
-584 -584 -648 -785 -1018 -1687 -1101 -2685 -6 -74 -11 -245 -11 -380 0 -371
33 -693 107 -1025 169 -758 498 -1426 1005 -2040 107 -129 455 -477 584 -584
785 -648 1687 -1018 2685 -1101 174 -15 586 -15 760 0 998 83 1900 453 2685
1101 129 107 477 455 584 584 507 614 836 1282 1005 2040 74 332 107 654 107
1025 0 135 -5 306 -11 380 -83 998 -453 1900 -1101 2685 -107 129 -455 477
-584 584 -919 760 -2019 1143 -3195 1114z m660 -57 c1315 -158 2458 -812 3253
-1863 443 -586 752 -1299 877 -2029 54 -313 64 -447 64 -814 0 -367 -10 -501
-64 -814 -226 -1316 -1012 -2485 -2150 -3199 -648 -406 -1361 -642 -2140 -707
-160 -13 -590 -13 -750 0 -1533 128 -2894 973 -3684 2289 -360 601 -581 1272
-652 1986 -23 230 -23 660 0 890 138 1384 848 2613 1974 3416 682 487 1473
776 2347 859 149 14 770 5 925 -14z"/>
<path d="M5850 6970 c-232 -8 -298 -18 -379 -60 -46 -23 -97 -72 -106 -101 -6
-18 -12 -20 -41 -15 -153 29 -424 34 -557 11 l-86 -15 -54 54 c-44 45 -66 58
-123 76 -114 35 -240 41 -901 41 -773 0 -777 -1 -867 -109 l-36 -44 -87 -3
c-88 -3 -195 -26 -220 -47 -9 -7 -13 -45 -13 -138 0 -111 2 -129 19 -144 19
-17 114 -40 217 -51 l61 -7 6 -72 c4 -39 16 -103 28 -141 18 -58 30 -78 82
-130 70 -70 118 -91 232 -100 39 -4 140 -14 225 -23 120 -13 254 -17 595 -17
l440 0 68 33 c55 27 79 48 135 115 92 109 178 255 191 320 6 29 9 114 8 190
l-2 138 36 9 c68 19 245 31 344 25 105 -6 248 -23 268 -31 8 -3 13 -53 15
-167 4 -186 8 -199 104 -347 83 -127 164 -211 240 -246 l63 -29 435 1 c271 0
469 4 525 12 50 6 151 16 225 22 179 14 219 28 296 104 71 71 102 139 111 249
3 38 11 70 17 72 6 1 58 10 115 19 155 24 151 19 151 180 0 104 -3 136 -14
146 -22 18 -112 39 -198 46 -43 4 -78 10 -78 15 0 4 -23 32 -50 62 -62 67
-104 85 -229 96 -117 11 -900 11 -1211 1z m1309 -75 c39 -15 65 -33 93 -66
l38 -46 6 -169 c7 -193 -6 -332 -38 -406 -25 -58 -104 -133 -156 -148 -20 -6
-93 -15 -162 -20 -69 -6 -161 -15 -205 -21 -126 -16 -896 -24 -962 -10 -29 7
-51 17 -48 22 3 5 -1 6 -9 3 -10 -4 -16 -1 -16 7 0 7 -3 9 -7 6 -10 -11 -42
23 -37 38 3 7 15 11 27 8 16 -3 18 -2 9 5 -8 5 -13 12 -13 16 4 25 -1 46 -9
46 -5 0 -7 -8 -3 -17 3 -10 3 -15 -1 -12 -4 4 -8 15 -11 27 -2 15 1 19 15 15
10 -3 21 0 25 6 3 6 3 11 -2 10 -21 -4 -43 2 -43 12 0 6 9 8 23 3 l22 -7 -20
23 c-11 13 -14 20 -6 15 9 -5 12 -3 9 6 -3 8 -1 22 3 31 7 13 5 16 -10 13 -12
-2 -21 3 -24 16 -5 17 3 23 24 21 11 -2 -3 39 -15 44 -6 2 -10 22 -10 44 2 54
4 58 14 35 6 -16 8 -14 7 13 0 21 -3 28 -8 20 -4 -7 -11 -9 -15 -6 -10 11 4
40 16 33 5 -3 10 -4 10 0 0 3 -10 10 -22 15 l-23 9 22 0 c15 1 21 7 20 20 0
11 -5 17 -9 15 -5 -3 -6 -11 -2 -17 3 -7 -2 -3 -10 8 -15 18 -15 20 6 28 l23
9 -22 15 c-26 17 -31 43 -9 43 13 0 13 4 1 27 -12 23 -12 28 2 38 12 9 13 14
4 19 -6 4 -8 12 -5 18 5 7 1 9 -9 5 -18 -7 -14 11 10 50 11 16 11 23 2 29 -7
4 -9 3 -6 -3 4 -6 0 -16 -7 -22 -12 -10 -14 -9 -11 6 2 10 4 24 4 31 1 7 5 11
9 8 4 -2 9 5 9 17 2 17 0 19 -7 7 -8 -13 -10 -12 -10 3 0 9 6 18 13 18 75 9
533 16 947 15 484 -2 518 -3 569 -21z m-3129 6 c370 -11 436 -19 517 -67 71
-41 78 -63 78 -259 -1 -192 2 -183 -100 -339 -81 -126 -155 -201 -223 -227
-52 -21 -77 -23 -307 -27 -324 -5 -834 23 -1032 58 -98 17 -175 92 -209 205
-15 50 -18 99 -19 290 l0 230 35 44 c48 59 95 81 194 89 135 12 700 13 1066 3z
m1549 -47 c4 3 8 -1 8 -9 0 -11 -5 -10 -24 2 -12 8 -23 20 -23 25 0 5 7 2 16
-6 8 -9 19 -14 23 -12z m-44 -14 c3 -5 1 -10 -4 -10 -6 0 -11 5 -11 10 0 6 2
10 4 10 3 0 8 -4 11 -10z m-55 -16 c0 -8 -5 -12 -10 -9 -6 3 -13 -1 -16 -9 -7
-20 14 -49 31 -42 7 2 12 -4 11 -17 -1 -12 8 -28 19 -35 17 -12 17 -13 1 -8
-13 5 -17 2 -13 -8 4 -10 1 -13 -9 -9 -9 3 -14 -2 -14 -17 0 -12 -4 -18 -10
-15 -6 3 -13 -1 -16 -9 -7 -20 14 -49 31 -42 7 2 12 -4 11 -17 -1 -12 8 -28
19 -35 17 -12 17 -13 1 -8 -13 5 -17 2 -13 -8 4 -10 1 -13 -9 -9 -9 3 -14 -2
-14 -17 0 -12 -4 -18 -10 -15 -6 3 -13 -1 -16 -9 -7 -20 14 -49 31 -42 7 2 12
-4 11 -17 -1 -12 8 -28 19 -35 17 -12 17 -13 1 -8 -13 5 -17 2 -13 -8 4 -10 1
-13 -9 -9 -10 3 -14 -2 -14 -18 0 -19 2 -21 10 -9 5 8 10 10 10 4 0 -5 -7 -19
-15 -30 -13 -16 -14 -17 -9 -1 4 11 2 17 -6 15 -7 -2 -22 15 -33 37 -18 33
-23 65 -28 175 -7 147 0 236 18 233 6 -1 9 6 6 16 -3 12 4 25 18 35 29 20 29
20 29 0z m9 -28 c-9 -19 -15 -23 -21 -14 -4 7 -8 18 -8 23 0 6 4 4 9 -4 7 -11
10 -9 16 8 4 13 9 20 11 18 3 -2 -1 -16 -7 -31z m46 14 c3 -6 -1 -7 -9 -4 -18
7 -21 14 -7 14 6 0 13 -4 16 -10z m30 -9 c3 -5 2 -12 -3 -15 -5 -3 -9 1 -9 9
0 17 3 19 12 6z m22 -36 c0 -8 -4 -12 -9 -9 -5 3 -6 10 -3 15 9 13 12 11 12
-6z m-50 -13 c-10 -10 -14 -22 -10 -25 3 -4 1 -7 -5 -7 -7 0 -12 3 -12 7 0 8
31 43 38 43 3 0 -2 -8 -11 -18z m70 -37 c0 -8 -4 -12 -9 -9 -5 3 -6 10 -3 15
9 13 12 11 12 -6z m-28 -21 c4 3 8 -1 8 -9 0 -11 -5 -10 -24 2 -12 8 -23 20
-23 25 0 5 7 2 16 -6 8 -9 19 -14 23 -12z m-44 -14 c3 -5 1 -10 -4 -10 -6 0
-11 5 -11 10 0 6 2 10 4 10 3 0 8 -4 11 -10z m-46 -44 c-9 -19 -15 -23 -21
-14 -4 7 -8 18 -8 23 0 6 4 4 9 -4 7 -11 10 -9 16 8 4 13 9 20 11 18 3 -2 -1
-16 -7 -31z m46 14 c3 -6 -1 -7 -9 -4 -18 7 -21 14 -7 14 6 0 13 -4 16 -10z
m30 -9 c3 -5 2 -12 -3 -15 -5 -3 -9 1 -9 9 0 17 3 19 12 6z m48 -37 c-3 -8 -7
-14 -10 -14 -3 0 -3 6 0 14 3 7 0 20 -6 27 -10 11 -9 11 5 0 9 -7 14 -19 11
-27z m-26 1 c0 -8 -4 -12 -9 -9 -5 3 -6 10 -3 15 9 13 12 11 12 -6z m-50 -13
c-10 -10 -14 -22 -10 -25 3 -4 1 -7 -5 -7 -7 0 -12 3 -12 7 0 8 31 43 38 43 3
0 -2 -8 -11 -18z m70 -37 c0 -8 -4 -12 -9 -9 -5 3 -6 10 -3 15 9 13 12 11 12
-6z m-28 -21 c4 3 8 -1 8 -9 0 -11 -5 -10 -24 2 -12 8 -23 20 -23 25 0 5 7 2
16 -6 8 -9 19 -14 23 -12z m-44 -14 c3 -5 1 -10 -4 -10 -6 0 -11 5 -11 10 0 6
2 10 4 10 3 0 8 -4 11 -10z m92 -25 c0 -20 -4 -19 -17 5 -8 15 -8 18 3 14 8
-3 14 -11 14 -19z m-138 -19 c-9 -19 -15 -23 -21 -14 -4 7 -8 18 -8 23 0 6 4
4 9 -4 7 -11 10 -9 16 8 4 13 9 20 11 18 3 -2 -1 -16 -7 -31z m46 14 c3 -6 -1
-7 -9 -4 -18 7 -21 14 -7 14 6 0 13 -4 16 -10z m30 -9 c3 -5 2 -12 -3 -15 -5
-3 -9 1 -9 9 0 17 3 19 12 6z m22 -36 c0 -8 -4 -12 -9 -9 -5 3 -6 10 -3 15 9
13 12 11 12 -6z m-50 -13 c-10 -10 -14 -22 -10 -25 3 -4 1 -7 -5 -7 -7 0 -12
3 -12 7 0 8 31 43 38 43 3 0 -2 -8 -11 -18z m70 -37 c0 -8 -4 -12 -9 -9 -5 3
-6 10 -3 15 9 13 12 11 12 -6z m-28 -21 c4 3 8 -1 8 -9 0 -11 -5 -10 -24 2
-12 8 -23 20 -23 25 0 5 7 2 16 -6 8 -9 19 -14 23 -12z m-44 -14 c3 -5 1 -10
-4 -10 -6 0 -11 5 -11 10 0 6 2 10 4 10 3 0 8 -4 11 -10z m83 -25 c-3 -3 -9 2
-12 12 -6 14 -5 15 5 6 7 -7 10 -15 7 -18z m40 0 c-3 -3 -9 2 -12 12 -6 14 -5
15 5 6 7 -7 10 -15 7 -18z m-123 -5 c3 -6 -1 -7 -9 -4 -18 7 -21 14 -7 14 6 0
13 -4 16 -10z m30 -9 c3 -5 2 -12 -3 -15 -5 -3 -9 1 -9 9 0 17 3 19 12 6z m22
-36 c0 -8 -4 -12 -9 -9 -5 3 -6 10 -3 15 9 13 12 11 12 -6z m-50 -13 c-10 -10
-14 -22 -10 -25 3 -4 1 -7 -5 -7 -7 0 -12 3 -12 7 0 8 31 43 38 43 3 0 -2 -8
-11 -18z m70 -37 c0 -8 -4 -12 -9 -9 -5 3 -6 10 -3 15 9 13 12 11 12 -6z m-28
-21 c4 3 8 -1 8 -9 0 -11 -5 -10 -24 2 -12 8 -23 20 -23 25 0 5 7 2 16 -6 8
-9 19 -14 23 -12z m58 -1 c1 -22 -1 -24 -8 -10 -6 9 -7 22 -4 27 9 14 10 13
12 -17z m-19 -38 c-3 -3 -9 2 -12 12 -6 14 -5 15 5 6 7 -7 10 -15 7 -18z m59
-61 c-3 -3 -12 -4 -19 -1 -8 3 -5 6 6 6 11 1 17 -2 13 -5z"/>
<path d="M5640 6780 c0 -5 5 -10 10 -10 6 0 10 5 10 10 0 6 -4 10 -10 10 -5 0
-10 -4 -10 -10z"/>
<path d="M5668 6413 c7 -3 16 -2 19 1 4 3 -2 6 -13 5 -11 0 -14 -3 -6 -6z"/>
<path d="M5665 6070 c3 -5 8 -10 11 -10 2 0 4 5 4 10 0 6 -5 10 -11 10 -5 0
-7 -4 -4 -10z"/>
<path d="M5455 6735 c-3 -8 -7 -22 -10 -31 -5 -14 -3 -15 9 -5 8 7 12 19 9 27
-3 8 0 14 5 14 15 0 6 -39 -15 -62 -15 -16 -15 -18 -1 -13 30 12 49 85 22 85
-8 0 -17 -7 -19 -15z"/>
<path d="M5455 6575 c-3 -8 -7 -22 -10 -31 -5 -14 -3 -15 9 -5 8 7 12 19 9 27
-3 8 0 14 5 14 15 0 6 -39 -15 -62 -15 -16 -15 -18 -1 -13 30 12 49 85 22 85
-8 0 -17 -7 -19 -15z"/>
<path d="M5455 6415 c-3 -8 -7 -22 -10 -31 -5 -14 -3 -15 9 -5 8 7 12 19 9 27
-3 8 0 14 5 14 13 0 7 -37 -9 -56 -7 -9 -7 -14 -1 -14 12 0 24 26 28 58 3 25
-24 31 -31 7z"/>
<path d="M2243 6215 c-16 -11 -22 -28 -26 -72 -2 -32 -10 -84 -18 -115 -11
-48 -11 -83 0 -205 6 -82 15 -191 18 -243 4 -68 50 -303 159 -819 l154 -723
69 -122 c37 -66 123 -224 191 -351 142 -266 253 -450 349 -579 78 -106 701
-741 796 -813 71 -54 120 -79 365 -190 l185 -84 245 -34 244 -35 236 10 c247
11 301 20 395 67 100 51 173 110 345 278 96 94 238 228 315 297 407 366 513
508 854 1151 72 136 145 269 161 295 26 43 48 137 184 773 87 412 156 759 159
806 4 45 18 128 33 185 24 95 25 116 22 263 -3 120 -8 169 -21 198 -14 33 -41
56 -52 46 -2 -2 -42 -240 -89 -529 -94 -572 -110 -642 -211 -896 -154 -388
-347 -734 -492 -882 -82 -84 -93 -82 -153 28 -25 47 -83 146 -129 219 -49 80
-92 164 -106 206 -43 131 -100 235 -170 312 -80 88 -86 90 -323 108 l-175 12
-81 43 c-68 36 -95 44 -171 53 -138 15 -163 13 -255 -23 -81 -32 -92 -34 -215
-34 -130 -1 -130 -1 -239 42 -60 23 -126 42 -147 42 -42 0 -118 -37 -211 -103
-127 -90 -122 -89 -415 -103 -178 -9 -273 -18 -295 -27 -82 -36 -184 -157
-256 -306 -38 -78 -64 -112 -156 -212 -61 -65 -127 -137 -146 -160 -46 -55
-88 -73 -139 -59 -148 40 -356 402 -525 912 -84 253 -102 349 -161 848 -61
520 -64 540 -74 540 -3 0 -16 -7 -28 -15z m2947 -1890 c71 -46 94 -51 149 -34
58 18 260 16 463 -4 171 -17 194 -27 324 -137 42 -36 87 -74 100 -85 19 -16
29 -44 49 -145 14 -69 33 -151 42 -183 35 -125 -13 -265 -127 -371 -118 -109
-237 -100 -368 27 -94 91 -197 262 -278 462 -19 48 -38 79 -46 78 -80 -10
-493 -36 -673 -41 l-229 -7 -58 -85 c-32 -47 -90 -147 -129 -223 -86 -164
-100 -184 -153 -208 -60 -27 -107 -24 -194 15 -43 18 -104 41 -137 51 -33 9
-76 25 -97 36 -54 27 -154 151 -199 246 -22 45 -51 96 -65 113 -17 20 -29 51
-36 93 -11 61 -10 63 26 124 29 50 43 64 74 73 20 7 98 41 174 76 75 35 167
71 205 79 92 19 538 45 693 39 109 -4 138 -2 225 20 147 36 198 34 265 -9z"/>
</g>
</svg>
